HIERARCHY
ROOT Hips
{
	OFFSET 0.000000 0.000000 0.000000
	CHANNELS 6 Xposition Yposition Zposition Zrotation Yrotation Xrotation
	JOINT LHipJoint
	{
		OFFSET 0.000000 0.000000 0.000000
		CHANNELS 6 Xposition Yposition Zposition Zrotation Yrotation Xrotation
		JOINT LeftUpLeg
		{
			OFFSET 1.363060 -0.839290 -1.794630
			CHANNELS 3 Zrotation Yrotation Xrotation
			JOINT LeftLeg
			{
				OFFSET 2.448110 0.000001 -6.726130
				CHANNELS 6 Xposition Yposition Zposition Zrotation Yrotation Xrotation
				JOINT LeftFoot
				{
					OFFSET 2.562200 0.000001 -7.039590
					CHANNELS 6 Xposition Yposition Zposition Zrotation Yrotation Xrotation
					JOINT LeftToeBase
					{
						OFFSET 0.157640 -2.322550 -0.433111
						CHANNELS 6 Xposition Yposition Zposition Zrotation Yrotation Xrotation
						End Site
						{
							OFFSET 0.000000 0.000000 0.100000
						}
					}
				}
			}
		}
	}
	JOINT RHipJoint
	{
		OFFSET 0.000000 0.000000 0.000000
		CHANNELS 6 Xposition Yposition Zposition Zrotation Yrotation Xrotation
		JOINT RightUpLeg
		{
			OFFSET -1.305520 -0.839290 -1.794630
			CHANNELS 3 Zrotation Yrotation Xrotation
			JOINT RightLeg
			{
				OFFSET -2.542530 0.000001 -6.985550
				CHANNELS 6 Xposition Yposition Zposition Zrotation Yrotation Xrotation
				JOINT RightFoot
				{
					OFFSET -2.568260 0.000001 -7.056231
					CHANNELS 6 Xposition Yposition Zposition Zrotation Yrotation Xrotation
					JOINT RightToeBase
					{
						OFFSET -0.164730 -2.363150 -0.452591
						CHANNELS 6 Xposition Yposition Zposition Zrotation Yrotation Xrotation
						End Site
						{
							OFFSET 0.000000 0.000000 0.100000
						}
					}
				}
			}
		}
	}
	JOINT LowerBack
	{
		OFFSET 0.000000 0.000000 0.000000
		CHANNELS 6 Xposition Yposition Zposition Zrotation Yrotation Xrotation
		JOINT Spine
		{
			OFFSET 0.028270 0.193380 2.035590
			CHANNELS 3 Zrotation Yrotation Xrotation
			JOINT Spine1
			{
				OFFSET 0.056720 0.042750 2.048850
				CHANNELS 6 Xposition Yposition Zposition Zrotation Yrotation Xrotation
				JOINT Neck
				{
					OFFSET 0.000000 0.000000 0.000000
					CHANNELS 6 Xposition Yposition Zposition Zrotation Yrotation Xrotation
					JOINT Neck1
					{
						OFFSET -0.054170 -0.172020 1.746240
						CHANNELS 3 Zrotation Yrotation Xrotation
						JOINT Head
						{
							OFFSET 0.104070 0.123970 1.761360
							CHANNELS 6 Xposition Yposition Zposition Zrotation Yrotation Xrotation
							End Site
							{
								OFFSET 0.000000 -0.000000 0.100000
							}
						}
					}
				}
				JOINT LeftShoulder
				{
					OFFSET 0.000000 0.000000 0.000000
					CHANNELS 6 Xposition Yposition Zposition Zrotation Yrotation Xrotation
					JOINT LeftArm
					{
						OFFSET 3.362410 0.311210 1.200890
						CHANNELS 3 Zrotation Yrotation Xrotation
						JOINT LeftForeArm
						{
							OFFSET 4.983000 0.000000 0.000000
							CHANNELS 6 Xposition Yposition Zposition Zrotation Yrotation Xrotation
							JOINT LeftHand
							{
								OFFSET 3.483560 0.000000 0.000000
								CHANNELS 6 Xposition Yposition Zposition Zrotation Yrotation Xrotation
								JOINT LeftFingerBase
								{
									OFFSET 0.000000 0.000000 0.000000
									CHANNELS 6 Xposition Yposition Zposition Zrotation Yrotation Xrotation
									JOINT LeftHandIndex1
									{
										OFFSET 0.715260 0.000000 0.000000
										CHANNELS 3 Zrotation Yrotation Xrotation
										End Site
										{
											OFFSET 0.000000 -0.000000 0.100000
										}
									}
								}
								JOINT LThumb
								{
									OFFSET 0.000000 0.000000 0.000000
									CHANNELS 6 Xposition Yposition Zposition Zrotation Yrotation Xrotation
									End Site
									{
										OFFSET 0.000000 -0.000000 0.100000
									}
								}
							}
						}
					}
				}
				JOINT RightShoulder
				{
					OFFSET 0.000000 0.000000 0.000000
					CHANNELS 6 Xposition Yposition Zposition Zrotation Yrotation Xrotation
					JOINT RightArm
					{
						OFFSET -3.136600 0.404650 1.374050
						CHANNELS 3 Zrotation Yrotation Xrotation
						JOINT RightForeArm
						{
							OFFSET -5.241900 0.000000 0.000000
							CHANNELS 6 Xposition Yposition Zposition Zrotation Yrotation Xrotation
							JOINT RightHand
							{
								OFFSET -3.444170 0.000000 0.000000
								CHANNELS 6 Xposition Yposition Zposition Zrotation Yrotation Xrotation
								JOINT RightFingerBase
								{
									OFFSET 0.000000 0.000000 0.000000
									CHANNELS 6 Xposition Yposition Zposition Zrotation Yrotation Xrotation
									JOINT RightHandIndex1
									{
										OFFSET -0.622530 0.000000 0.000000
										CHANNELS 3 Zrotation Yrotation Xrotation
										End Site
										{
											OFFSET 0.000000 0.000000 0.100000
										}
									}
								}
								JOINT RThumb
								{
									OFFSET 0.000000 0.000000 0.000000
									CHANNELS 6 Xposition Yposition Zposition Zrotation Yrotation Xrotation
									End Site
									{
										OFFSET 0.000000 0.000000 0.100000
									}
								}
							}
						}
					}
				}
			}
		}
	}
}
MOTION
Frames: 7
Frame Time: 0.041667
0.000000 0.000000 0.000000 0.000000 -0.000000 0.000000 0.000000 0.000000 0.000000 -0.569298 7.069046 -1.399264 -3.907056 6.999427 -28.874512 2.448110 0.000001 -6.726130 6.203454 2.244071 14.403549 2.562201 0.000002 -7.039593 18.912263 5.505395 12.846391 0.157641 -2.322551 -0.433111 -3.480044 -0.292359 -9.600326 0.000000 0.000000 0.000000 -3.733986 -5.279569 6.923720 4.740879 -19.512346 4.571290 -2.542530 0.000001 -6.985551 -2.064917 -2.304797 11.511648 -2.568261 0.000001 -7.056230 2.149173 1.213006 4.388375 -0.164731 -2.363148 -0.452589 -1.480901 0.052684 4.071835 0.000000 0.000000 0.000000 2.574252 -7.094322 6.703054 3.768107 -1.328482 -2.082021 0.056720 0.042750 2.048852 2.428575 1.711282 1.021773 0.000000 0.000000 -0.000000 4.107669 2.183942 -10.891220 5.690386 1.843002 2.855839 0.104070 0.123970 1.761359 2.548844 1.925594 3.058002 0.000000 0.000000 -0.000000 -1.954769 3.703414 -0.145884 94.755617 76.889366 84.404165 4.983000 -0.000000 -0.000000 -16.368133 -6.767874 0.147641 3.483559 0.000000 0.000000 -0.612364 0.798537 -12.842886 -0.000001 0.000000 0.000000 22.382689 -21.093736 0.497225 0.000004 7.125003 -0.000001 -0.000001 0.000001 0.000000 52.868325 3.190250 3.195208 0.000000 0.000000 0.000000 3.000545 -7.329952 -0.013472 40.809055 -58.669406 3.101274 -5.241900 0.000000 -0.000000 40.884334 20.685663 6.841785 -3.444170 0.000000 -0.000000 -0.748064 -0.662647 -17.091572 -0.000001 0.000000 0.000000 17.461746 25.678294 -0.601146 -0.000000 -7.125001 -0.000001 0.000000 0.000000 0.000001 -11.406222 -0.424936 0.424932 
0.000000 0.000000 0.000000 0.000000 -0.000000 0.000000 0.000000 0.000000 0.000000 -0.527983 7.096727 -1.379318 -3.829333 7.330502 -28.805083 2.448111 0.000002 -6.726130 6.235967 2.254661 14.514879 2.562201 0.000002 -7.039590 18.952424 5.559538 12.420439 0.157639 -2.322551 -0.433114 -2.882119 -0.200045 -7.940733 0.000000 0.000000 0.000000 -3.838548 -5.184455 6.990346 4.731912 -19.295800 5.416265 -2.542530 0.000001 -6.985549 -1.974760 -2.308490 11.306767 -2.568259 0.000001 -7.056230 2.091197 1.182538 4.617233 -0.164731 -2.363149 -0.452589 -0.722701 0.012500 1.985840 0.000000 0.000000 0.000000 2.658878 -6.871666 6.308279 3.813282 -1.326225 -1.897981 0.056720 0.042750 2.048851 2.467555 1.523262 1.755020 -0.000000 -0.000000 -0.000000 4.164071 2.202138 -11.431245 5.806032 1.844613 2.724724 0.104070 0.123969 1.761360 2.593558 1.921530 3.100224 -0.000000 -0.000000 -0.000000 -1.893899 3.699740 -0.113652 95.844923 77.523911 85.271708 4.982999 -0.000000 0.000000 -16.291284 -6.730193 0.136599 3.483560 0.000000 -0.000000 -0.605762 0.798612 -12.595728 -0.000000 0.000000 0.000001 22.571723 -21.107808 0.497537 0.000002 7.125004 -0.000001 -0.000001 0.000001 0.000001 53.053904 3.183384 3.188349 0.000000 0.000000 0.000000 2.970701 -7.338788 0.023596 41.747049 -58.193956 2.055119 -5.241900 0.000000 -0.000000 40.664713 20.600161 6.769678 -3.444170 0.000000 0.000000 -0.735212 -0.641198 -16.800298 0.000000 0.000000 0.000000 17.048046 25.094984 -0.570259 0.000000 -7.125000 0.000001 0.000001 -0.000000 0.000000 -11.857147 -0.824425 0.824483 
0.000000 0.000000 0.000000 0.000000 -0.000000 0.000000 0.000000 0.000000 0.000000 -0.513308 7.108696 -1.362325 -3.682296 7.700599 -28.851184 2.448111 0.000002 -6.726129 6.315127 2.239074 14.753338 2.562200 0.000002 -7.039590 18.910991 5.538320 12.405412 0.157639 -2.322549 -0.433112 -3.105725 -0.232458 -8.560591 0.000000 0.000000 0.000000 -3.895272 -5.122691 7.041622 4.622181 -19.060353 5.842089 -2.542531 0.000001 -6.985551 -2.078415 -2.256944 11.637849 -2.568260 0.000002 -7.056232 2.385310 1.265789 4.702896 -0.164731 -2.363151 -0.452589 -0.315399 0.002400 0.866484 0.000000 0.000000 0.000000 2.765006 -6.726030 6.148331 3.925170 -1.296455 -1.872989 0.056720 0.042750 2.048851 2.529025 1.503346 1.894440 -0.000000 0.000000 -0.000000 4.166334 2.176724 -11.522690 5.779217 1.684706 2.430075 0.104070 0.123970 1.761359 2.583374 1.867700 2.986455 -0.000000 -0.000000 -0.000000 -1.887926 3.708960 -0.102933 95.831406 77.773424 84.940151 4.982998 -0.000000 0.000000 -16.037255 -6.590989 0.116851 3.483559 0.000000 0.000000 -0.577793 0.801546 -11.821026 0.000000 -0.000000 0.000001 21.982214 -21.045794 0.479854 0.000003 7.125003 -0.000001 -0.000001 0.000000 -0.000000 52.448900 3.226519 3.231657 0.000000 0.000000 0.000000 2.960401 -7.342642 0.031603 41.989513 -58.106414 1.631870 -5.241899 0.000001 0.000000 40.296354 20.432091 6.625986 -3.444169 0.000000 -0.000000 -0.746952 -0.643549 -16.528073 -0.000001 0.000000 -0.000000 17.193545 25.219078 -0.580164 0.000000 -7.125000 -0.000002 0.000001 -0.000000 -0.000000 -11.696889 -0.739909 0.739983 
0.000000 0.000000 0.000000 0.000000 -0.000000 0.000000 0.000000 0.000000 0.000000 -0.519141 7.094121 -1.344077 -3.274719 8.276935 -29.062544 2.448110 0.000001 -6.726130 6.478114 2.198442 15.216159 2.562200 0.000002 -7.039592 18.598836 5.366035 12.772196 0.157639 -2.322549 -0.433110 -3.789170 -0.347041 -10.461122 0.000000 0.000000 0.000000 -3.962737 -5.066530 7.116416 4.624504 -18.705656 6.239486 -2.542530 0.000001 -6.985550 -2.112264 -2.232455 11.765867 -2.568260 0.000002 -7.056230 2.459362 1.281519 5.108122 -0.164731 -2.363149 -0.452590 -0.135600 0.000399 0.372599 0.000000 0.000000 0.000000 2.862335 -6.529286 5.959326 4.022234 -1.226959 -1.931994 0.056720 0.042750 2.048852 2.583533 1.621623 1.784739 -0.000000 -0.000000 -0.000001 4.181447 1.951590 -11.366095 5.718198 1.539837 2.100498 0.104070 0.123970 1.761361 2.560262 1.867535 2.817892 -0.000000 -0.000000 -0.000001 -1.898241 3.721305 -0.103319 95.100549 77.797146 84.010767 4.982999 -0.000000 0.000000 -15.841331 -6.482314 0.104160 3.483559 0.000000 -0.000000 -0.554118 0.805781 -11.313554 -0.000002 0.000000 0.000001 21.285557 -21.120036 0.463370 -0.000001 7.125001 -0.000002 -0.000002 0.000002 0.000000 51.734465 3.173481 3.178379 0.000000 0.000000 0.000000 2.953898 -7.332334 0.028837 42.027988 -58.369130 1.517734 -5.241899 0.000000 -0.000000 39.976080 20.272970 6.501867 -3.444170 0.000000 -0.000000 -0.762991 -0.655233 -16.395540 0.000000 0.000000 -0.000001 17.445982 25.559732 -0.601806 0.000001 -7.125000 0.000001 0.000001 -0.000000 -0.000000 -11.415852 -0.506183 0.506215 
0.000000 0.000000 0.000000 0.000000 -0.000000 0.000000 0.000000 0.000000 0.000000 -0.508312 7.048632 -1.310300 -3.070803 8.526168 -29.139827 2.448110 0.000001 -6.726130 6.719093 2.107365 15.896292 2.562200 0.000002 -7.039590 18.204766 5.178526 13.080662 0.157641 -2.322551 -0.433112 -4.040294 -0.394914 -11.161911 0.000000 0.000000 0.000000 -3.996218 -5.002237 7.144327 4.531172 -18.649131 6.530286 -2.542530 0.000001 -6.985551 -2.246555 -2.173847 12.188452 -2.568261 0.000002 -7.056231 2.647259 1.321803 5.511931 -0.164731 -2.363149 -0.452590 0.204399 0.000995 -0.561597 0.000000 0.000000 0.000000 2.907873 -6.506675 5.650037 4.055267 -1.209530 -1.975874 0.056720 0.042750 2.048851 2.603975 1.665409 1.779570 -0.000000 -0.000000 -0.000001 4.247774 1.746622 -11.205927 5.739840 1.438477 1.841645 0.104070 0.123970 1.761360 2.575788 1.877802 2.675959 -0.000000 0.000000 -0.000001 -1.901985 3.715491 -0.101233 94.960701 77.795247 83.940703 4.983000 0.000000 0.000000 -15.834636 -6.474845 0.104265 3.483559 0.000000 -0.000001 -0.557105 0.802211 -11.573525 0.000001 -0.000000 0.000000 21.210664 -21.062295 0.461444 0.000003 7.125001 0.000001 -0.000000 0.000001 0.000000 51.660054 3.213165 3.218263 0.000000 0.000000 -0.000000 2.936738 -7.327056 0.029184 42.099176 -58.682950 1.601804 -5.241900 -0.000000 -0.000000 39.751390 20.155902 6.427618 -3.444170 0.000001 -0.000001 -0.762159 -0.666525 -16.316837 0.000001 -0.000000 -0.000001 17.298185 25.745869 -0.609937 0.000001 -7.125001 -0.000001 0.000001 -0.000000 -0.000000 -11.557448 -0.370921 0.370854 
0.000000 0.000000 0.000000 0.000000 -0.000000 0.000000 0.000000 0.000000 0.000000 -0.486729 6.992312 -1.297900 -3.196015 8.483821 -29.115850 2.448110 0.000002 -6.726130 7.000818 1.979150 16.681006 2.562200 0.000001 -7.039592 17.915622 5.047430 13.308192 0.157639 -2.322549 -0.433110 -3.601255 -0.313182 -9.937595 0.000000 0.000000 0.000000 -4.010839 -4.929032 7.141833 4.387589 -18.845260 6.816490 -2.542530 0.000001 -6.985550 -2.405677 -2.103035 12.688264 -2.568260 0.000002 -7.056231 2.928450 1.386087 5.575725 -0.164730 -2.363150 -0.452590 0.911202 0.019894 -2.504177 0.000000 0.000000 0.000000 2.953863 -6.652217 5.104340 4.076802 -1.252802 -1.971266 0.056720 0.042750 2.048851 2.620674 1.555392 2.046408 0.000000 0.000000 -0.000000 4.250061 1.822704 -11.170983 5.727403 1.243273 1.627261 0.104070 0.123970 1.761360 2.576460 1.791887 2.549518 -0.000000 -0.000000 -0.000001 -1.884175 3.703723 -0.090156 95.592090 77.929030 84.588778 4.982999 -0.000000 -0.000000 -15.799203 -6.446196 0.097678 3.483560 0.000000 -0.000000 -0.563948 0.798036 -11.609494 0.000001 -0.000000 0.000001 21.501167 -20.927341 0.466273 0.000001 7.124999 -0.000002 -0.000001 0.000000 0.000000 51.959616 3.308758 3.314296 0.000000 0.000000 0.000000 2.908469 -7.335043 0.034400 42.111391 -58.789118 1.643432 -5.241898 0.000000 0.000000 39.459830 20.005098 6.322243 -3.444170 0.000000 -0.000001 -0.755820 -0.681029 -16.333238 0.000000 0.000000 -0.000001 17.141461 25.895540 -0.616112 0.000000 -7.125001 -0.000000 0.000001 -0.000000 -0.000000 -11.713223 -0.257718 0.257732 
0.000000 0.000000 0.000000 0.000000 -0.000000 0.000000 0.000000 0.000000 0.000000 -0.452235 6.977460 -1.292765 -3.258300 8.857775 -29.167227 2.448110 0.000001 -6.726129 7.335556 1.818952 17.583823 2.562201 0.000001 -7.039591 18.030257 5.021427 13.923236 0.157639 -2.322550 -0.433110 -3.495546 -0.294951 -9.643587 0.000000 0.000000 0.000000 -4.076622 -4.847350 7.192604 4.360150 -18.721731 7.305047 -2.542530 0.000001 -6.985551 -2.520855 -2.042082 13.038417 -2.568260 0.000002 -7.056228 2.926993 1.381729 5.335992 -0.164731 -2.363149 -0.452590 1.959902 0.092246 -5.391543 0.000000 0.000000 0.000000 2.933928 -6.322996 4.755532 4.005056 -1.268096 -1.963733 0.056720 0.042750 2.048852 2.576451 1.280070 2.193069 -0.000000 -0.000000 -0.000001 4.264102 2.047381 -11.121815 5.737160 0.921601 1.327794 0.104070 0.123970 1.761360 2.591745 1.627834 2.388974 0.000000 -0.000000 -0.000001 -1.884768 3.698823 -0.081553 96.437107 78.023860 85.333781 4.983000 -0.000000 -0.000000 -15.825398 -6.459050 0.099135 3.483560 0.000000 0.000000 -0.558056 0.792827 -11.349916 -0.000001 0.000000 0.000001 21.563447 -20.689316 0.462396 0.000006 7.124998 0.000001 -0.000000 0.000002 0.000001 52.024451 3.476146 3.482550 0.000000 0.000000 -0.000000 2.889714 -7.338440 0.039755 42.016421 -58.835133 1.795279 -5.241900 0.000001 -0.000000 39.076086 19.819086 6.189778 -3.444171 0.000000 -0.000000 -0.747932 -0.688652 -16.576835 -0.000001 -0.000000 -0.000000 17.088180 25.791704 -0.612756 0.000001 -7.125001 0.000000 0.000001 -0.000000 -0.000000 -11.772993 -0.323938 0.323915 
